<svg xmlns="http://www.w3.org/2000/svg" viewBox="0 0 128 128" fill="none">
  <!-- Dark Fingerprint -->
  <g stroke="#333333" stroke-width="8" stroke-linecap="round" stroke-linejoin="round">
    <path d="M64 24 c-22.1 0 -40 17.9 -40 40 v8" />
    <path d="M80 34 c-4.6 -2.3 -9.8 -3.6 -15.3 -3.6 c-20.4 0 -37 16.6 -37 37 v12" />
    <path d="M96 46 c-7 -6.5 -16.5 -10.5 -26.8 -10.5 c-21.5 0 -39 17.5 -39 39 v6" />
    <path d="M102 60 c-8.5 -8.5 -20 -13.5 -32.8 -13.5 c-22 0 -40 18 -40 40" />
    <path d="M106 76 c-9.5 -8 -22.5 -12.5 -36.5 -12.5 c-20 0 -36.5 16 -36.5 35" />
    <path d="M100 96 c-7.5 -6.5 -18 -10.5 -29 -10.5" />
  </g>
  
  <!-- Red 'No' Sign -->
  <circle cx="64" cy="64" r="56" stroke="#D32F2F" stroke-width="12" />
  <line x1="24" y1="24" x2="104" y2="104" stroke="#D32F2F" stroke-width="12" stroke-linecap="round" />
</svg>
